<svg width="96" height="96" xmlns="http://www.w3.org/2000/svg" xmlns:xlink="http://www.w3.org/1999/xlink" xml:space="preserve" overflow="hidden"><g transform="translate(-520 -185)"><path d="M585.621 222.693C583.851 219.672 581.334 217.156 578.313 215.385 576.786 214.497 575.152 213.809 573.45 213.335 569.9 212.36 566.154 212.36 562.604 213.335 560.902 213.808 559.268 214.497 557.741 215.385 554.72 217.156 552.203 219.672 550.433 222.693 549.545 224.22 548.857 225.854 548.383 227.556 547.407 231.105 547.407 234.853 548.383 238.402 548.856 240.104 549.545 241.738 550.433 243.265 552.203 246.286 554.72 248.803 557.741 250.573 559.268 251.461 560.902 252.15 562.604 252.623 566.154 253.598 569.9 253.598 573.45 252.623 575.152 252.15 576.786 251.461 578.313 250.573 581.334 248.803 583.851 246.286 585.621 243.265 586.509 241.738 587.198 240.104 587.671 238.402 588.646 234.852 588.646 231.106 587.671 227.556 587.197 225.854 586.508 224.22 585.621 222.693ZM574.029 244.414 570.279 238.114C569.982 237.614 569.689 237.161 569.4 236.755 569.129 236.368 568.806 236.021 568.44 235.724 568.075 235.436 567.663 235.214 567.221 235.068 566.695 234.901 566.144 234.822 565.592 234.833 565.373 234.833 565.154 234.837 564.936 234.845 564.718 234.853 564.499 234.857 564.279 234.857L564.279 244.419 560.389 244.419 560.389 220.836 568.147 220.836C569.122 220.833 570.095 220.951 571.041 221.188 571.929 221.403 572.768 221.785 573.514 222.313 574.233 222.829 574.819 223.507 575.225 224.293 575.669 225.194 575.886 226.189 575.857 227.193 575.865 227.975 575.738 228.754 575.482 229.493 575.243 230.178 574.882 230.813 574.416 231.368 573.944 231.924 573.382 232.396 572.752 232.763 572.082 233.155 571.36 233.451 570.607 233.642 571.417 234.138 572.138 234.766 572.74 235.5 573.338 236.227 573.892 236.988 574.4 237.781L578.6 244.414Z"/><path d="M571.709 227.609C571.724 227.046 571.617 226.486 571.393 225.969 571.193 225.53 570.892 225.144 570.514 224.844 570.122 224.539 569.671 224.32 569.19 224.2 568.658 224.064 568.11 223.997 567.561 224L564.279 224 564.279 231.664 567.537 231.664C568.112 231.67 568.683 231.575 569.225 231.383 569.718 231.209 570.169 230.933 570.549 230.574 570.92 230.215 571.21 229.78 571.4 229.3 571.612 228.762 571.717 228.187 571.709 227.609Z"/><path d="M568.027 195C547.052 195 530.048 212.004 530.048 232.979 530.048 253.954 547.052 270.958 568.027 270.958 589.002 270.958 606.006 253.954 606.006 232.979 606.015 212.013 589.027 195.009 568.061 195 568.05 195 568.038 195 568.027 195ZM591.145 239.356C588.893 247.492 582.536 253.849 574.4 256.1 570.225 257.239 565.82 257.239 561.645 256.1 559.641 255.545 557.718 254.733 555.923 253.682 552.373 251.591 549.414 248.632 547.323 245.082 546.272 243.287 545.459 241.363 544.905 239.359 543.766 235.184 543.766 230.78 544.905 226.605 547.761 216.195 557.233 208.987 568.027 209.007 570.182 209.001 572.327 209.289 574.404 209.861 582.537 212.112 588.893 218.467 591.145 226.6 592.284 230.775 592.284 235.179 591.145 239.354Z"/></g></svg>