<svg width="96" height="96" xmlns="http://www.w3.org/2000/svg" xmlns:xlink="http://www.w3.org/1999/xlink" xml:space="preserve" overflow="hidden"><g transform="translate(-129 -418)"><path d="M208 493 208 491 205 491 205 457 208 457 208 455 211 455 211 449 208 449 177 430 146 449 143 449 143 455 146 455 146 457 149 457 149 491 146 491 146 493 139 498 139 502 215 502 215 498 208 493ZM165 491 157 491 157 457 165 457 165 491ZM181 491 173 491 173 457 181 457 181 491ZM197 491 189 491 189 457 197 457 197 491Z"/></g></svg>