<svg width="96" height="96" xmlns="http://www.w3.org/2000/svg" xmlns:xlink="http://www.w3.org/1999/xlink" xml:space="preserve" overflow="hidden"><g transform="translate(-334 -171)"><path d="M357 185 407 185 407 253 357 253 357 185ZM351 259 413 259 413 179 351 179 351 259Z"/><path d="M383 237 401 237 401 241 383 241Z"/><path d="M363 193 401 193 401 197 363 197Z"/><path d="M363 201 401 201 401 205 363 205Z"/><path d="M363 209 401 209 401 213 363 213Z"/><path d="M363 217 382 217 382 221 363 221Z"/><path d="M366.1 246 370 242.1 373.9 246 377 242.9 373.1 239 377 235.1 373.9 232 370 235.9 366.1 232 363 235.1 366.9 239 363 242.9Z"/></g></svg>