<svg width="96" height="96" xmlns="http://www.w3.org/2000/svg" xmlns:xlink="http://www.w3.org/1999/xlink" xml:space="preserve" overflow="hidden"><g transform="translate(-147 -171)"><path d="M220.489 174 220.489 174C222.047 179.49 225.893 184.044 231.045 186.5L231.045 186.5C225.893 188.956 222.047 193.51 220.489 199L220.489 199C218.93 193.51 215.085 188.956 209.933 186.5L209.933 186.5C215.085 184.044 218.93 179.49 220.489 174Z"/><path d="M234.511 195 234.511 195C235.321 197.855 237.321 200.223 240 201.5L240 201.5C237.321 202.777 235.321 205.145 234.511 208L234.511 208C233.701 205.145 231.701 202.777 229.022 201.5L229.022 201.5C231.701 200.223 233.701 197.855 234.511 195Z"/><path d="M160.885 185 160.885 185C162.07 189.173 164.992 192.634 168.908 194.5L168.908 194.5C164.992 196.366 162.07 199.827 160.885 204L160.885 204C159.701 199.827 156.778 196.366 152.863 194.5L152.863 194.5C156.778 192.634 159.701 189.173 160.885 185Z"/><path d="M194.974 182.993 194.974 182.993 152.997 222.971 157.494 226.769 194.974 191.189 194.974 191.189 232.453 226.769 236.951 222.971 194.974 182.993 194.974 182.993Z"/><path d="M164.99 225.27 164.99 254.954 188.977 254.954 188.977 229.968 200.97 229.968 200.97 254.954 224.957 254.954 224.957 225.27 194.974 196.786 164.99 225.27 164.99 225.27 164.99 225.27Z"/></g></svg>