<svg width="96" height="96" xmlns="http://www.w3.org/2000/svg" xmlns:xlink="http://www.w3.org/1999/xlink" xml:space="preserve" overflow="hidden"><g transform="translate(-913 -185)"><path d="M929.5 267.8C928.8 268.5 927.9 268.7 927 268.3 926.1 267.9 925.6 267.1 925.6 266.2 925.6 265.3 926.2 264.4 927 264.1 927.9 263.7 928.8 263.9 929.5 264.6 930.4 265.4 930.4 266.9 929.5 267.8ZM1000.1 201.9 992 210 985.6 208.3 984 202 992.1 193.9C987.3 192.1 981.9 193.2 978.1 196.6 974.3 200.1 972.8 205.3 974.1 210.3L923.1 261.3C921.3 263 920.6 265.6 921.2 268 921.8 270.4 923.7 272.3 926.1 272.9 928.5 273.5 931 272.8 932.8 271L983.8 220C988.8 221.3 994 219.8 997.5 216 1000.9 212.2 1002 206.7 1000.1 201.9Z"/><path d="M999.7 261.3 973.9 235.5 963.5 245.9 988.5 270.9 989.4 271.8 989.5 271.7C992.4 273.8 996.4 273.4 998.9 270.9 1001.4 268.3 1001.7 264.3 999.7 261.3L999.7 261.3Z"/><path d="M935.6 204.8 935.7 204.7 933.1 199.9 924.5 193 921 196.5 927.9 205.1 932.7 207.7 932.8 207.6 951.9 226.7 954.7 223.9Z"/></g></svg>