<svg width="96" height="96" xmlns="http://www.w3.org/2000/svg" xmlns:xlink="http://www.w3.org/1999/xlink" xml:space="preserve" overflow="hidden"><g transform="translate(-707 -185)"><path d="M771 208C771 210.761 768.761 213 766 213 763.239 213 761 210.761 761 208 761 205.239 763.239 203 766 203 768.761 203 771 205.239 771 208Z"/><path d="M792 232C792 234.209 790.209 236 788 236 785.791 236 784 234.209 784 232 784 229.791 785.791 228 788 228 790.209 228 792 229.791 792 232Z"/><path d="M749 208C749 210.761 746.761 213 744 213 741.239 213 739 210.761 739 208 739 205.239 741.239 203 744 203 746.761 203 749 205.239 749 208Z"/><path d="M726 232C726 234.209 724.209 236 722 236 719.791 236 718 234.209 718 232 718 229.791 719.791 228 722 228 724.209 228 726 229.791 726 232Z"/><path d="M798.8 249.2 795.3 240.9C794.1 239.2 792.2 237.9 790.1 237.3 789.5 237.1 788.7 237 788 237 786.6 237 785.3 237.3 784.1 237.9L778 233.6 774.4 218.6C774.3 218.2 774 217.7 773.7 217.5 772.5 216.6 771.1 215.9 769.6 215.5 768.4 215.2 767.2 215 766 215 764.8 215 763.6 215.2 762.5 215.5 761 215.9 759.6 216.6 758.4 217.5 758 217.8 757.8 218.2 757.7 218.6L755 229.4 752.4 218.6C752.3 218.2 752 217.7 751.7 217.5 750.5 216.6 749.1 215.9 747.6 215.5 746.4 215.2 745.2 215 744 215 742.8 215 741.6 215.2 740.5 215.5 739 215.9 737.6 216.6 736.4 217.5 736 217.8 735.8 218.2 735.7 218.6L732.1 233.6 726 237.9C724.7 237.3 723.4 237 722 237 721.3 237 720.5 237.1 719.9 237.3 717.8 237.8 715.9 239.1 714.7 240.9L711.2 249.2C710.8 250.1 711.1 251.1 711.8 251.7 712.2 251.9 712.6 252 713 252 713.8 252 714.5 251.5 714.8 250.8L717 245.6 717 251 717 263 721 263 721 251 723 251 723 263 727 263 727 242 727.1 242 735 236.5C735.4 236.2 735.7 235.8 735.8 235.3L739 222 739 263 743 263 743 240 745 240 745 263 749 263 749 222 753.1 238.5C753.3 239.4 754.1 240 755 240 755.9 240 756.7 239.4 756.9 238.5L761 222 761 230.4 757.5 245 761 245 761 263 765 263 765 245 767 245 767 263 771 263 771 245 774.5 245 771 230.4 771 222 774.3 235.3C774.4 235.8 774.7 236.2 775.1 236.5L783.1 242.1 783.1 248.3 781 254 783 254 783 263 787 263 787 254 789 254 789 263 793 263 793 254 795 254 793.1 248.7 793.1 245.6 795.3 250.8C795.6 251.6 796.4 252 797.1 252 797.5 252 797.9 251.9 798.3 251.6 798.9 251.1 799.2 250 798.8 249.2Z"/></g></svg>